<?xml version="1.0" encoding="UTF-8" standalone="no"?>
<!DOCTYPE svg PUBLIC "-//W3C//DTD SVG 1.1//EN"
 "http://www.w3.org/Graphics/SVG/1.1/DTD/svg11.dtd">
<!-- Generated by graphviz version 2.40.1 (20161225.0304)
 -->
<!-- Title: G Pages: 1 -->
<svg width="188pt" height="179pt"
 viewBox="0.00 0.00 188.00 179.00" xmlns="http://www.w3.org/2000/svg" xmlns:xlink="http://www.w3.org/1999/xlink">
<g id="graph0" class="graph" transform="scale(1 1) rotate(0) translate(4 175)">
<title>G</title>
<polygon fill="#ffffff" stroke="transparent" points="-4,4 -4,-175 184,-175 184,4 -4,4"/>
<!-- G -->
<g id="node1" class="node">
<title>G</title>
<ellipse fill="none" stroke="#000000" cx="18" cy="-45" rx="18" ry="18"/>
<text text-anchor="middle" x="18" y="-40.8" font-family="Times,serif" font-size="14.00" fill="#000000">G</text>
</g>
<!-- D -->
<g id="node2" class="node">
<title>D</title>
<ellipse fill="none" stroke="#000000" cx="90" cy="-126" rx="18" ry="18"/>
<text text-anchor="middle" x="90" y="-121.8" font-family="Times,serif" font-size="14.00" fill="#000000">D</text>
</g>
<!-- G&#45;&gt;D -->
<g id="edge1" class="edge">
<title>G&#45;&gt;D</title>
<path fill="none" stroke="#000000" d="M32.5703,-55.8429C44.6356,-67.8684 61.7502,-87.0703 74.1546,-102.4694"/>
<polygon fill="#000000" stroke="#000000" points="80.4993,-110.5634 70.7884,-105.4694 77.4147,-106.6283 74.33,-102.6932 74.33,-102.6932 74.33,-102.6932 77.4147,-106.6283 77.8716,-99.917 80.4993,-110.5634 80.4993,-110.5634"/>
</g>
<!-- S -->
<g id="node4" class="node">
<title>S</title>
<ellipse fill="none" stroke="#000000" cx="90" cy="-18" rx="18" ry="18"/>
<text text-anchor="middle" x="90" y="-13.8" font-family="Times,serif" font-size="14.00" fill="#000000">S</text>
</g>
<!-- G&#45;&gt;S -->
<g id="edge5" class="edge">
<title>G&#45;&gt;S</title>
<path fill="none" stroke="#000000" d="M32.5703,-33.9875C41.0761,-29.7065 52.0914,-25.2279 62.1967,-21.8342"/>
<polygon fill="#000000" stroke="#000000" points="71.872,-18.8496 63.6429,-26.0974 67.0942,-20.3235 62.3164,-21.7974 62.3164,-21.7974 62.3164,-21.7974 67.0942,-20.3235 60.9898,-17.4973 71.872,-18.8496 71.872,-18.8496"/>
</g>
<!-- D&#45;&gt;G -->
<g id="edge2" class="edge">
<title>D&#45;&gt;G</title>
<path fill="none" stroke="#000000" d="M75.4731,-115.2003C63.4761,-103.2481 46.4655,-84.1734 34.0644,-68.8023"/>
<polygon fill="#000000" stroke="#000000" points="27.7102,-60.7125 37.4261,-65.7971 30.7987,-64.6446 33.8873,-68.5767 33.8873,-68.5767 33.8873,-68.5767 30.7987,-64.6446 30.3484,-71.3564 27.7102,-60.7125 27.7102,-60.7125"/>
</g>
<!-- U -->
<g id="node3" class="node">
<title>U</title>
<ellipse fill="none" stroke="#000000" cx="18" cy="-126" rx="18" ry="18"/>
<text text-anchor="middle" x="18" y="-121.8" font-family="Times,serif" font-size="14.00" fill="#000000">U</text>
</g>
<!-- D&#45;&gt;U -->
<g id="edge4" class="edge">
<title>D&#45;&gt;U</title>
<path fill="none" stroke="#000000" d="M72.5593,-131.8794C64.3745,-132.7231 54.428,-132.9536 45.2807,-132.5709"/>
<polygon fill="#000000" stroke="#000000" points="35.063,-131.8399 45.3586,-128.065 40.0503,-132.1967 45.0375,-132.5536 45.0375,-132.5536 45.0375,-132.5536 40.0503,-132.1967 44.7164,-137.0421 35.063,-131.8399 35.063,-131.8399"/>
</g>
<!-- I -->
<g id="node5" class="node">
<title>I</title>
<ellipse fill="none" stroke="#000000" cx="90" cy="-72" rx="18" ry="18"/>
<text text-anchor="middle" x="90" y="-67.8" font-family="Times,serif" font-size="14.00" fill="#000000">I</text>
</g>
<!-- D&#45;&gt;I -->
<g id="edge12" class="edge">
<title>D&#45;&gt;I</title>
<path fill="none" stroke="#000000" d="M90,-107.7902C90,-105.3082 90,-102.8262 90,-100.3443"/>
<polygon fill="#000000" stroke="#000000" points="90,-90.1406 94.5001,-100.1406 90,-95.1406 90.0001,-100.1406 90.0001,-100.1406 90.0001,-100.1406 90,-95.1406 85.5001,-100.1407 90,-90.1406 90,-90.1406"/>
</g>
<!-- C -->
<g id="node6" class="node">
<title>C</title>
<ellipse fill="none" stroke="#000000" cx="162" cy="-153" rx="18" ry="18"/>
<text text-anchor="middle" x="162" y="-148.8" font-family="Times,serif" font-size="14.00" fill="#000000">C</text>
</g>
<!-- D&#45;&gt;C -->
<g id="edge9" class="edge">
<title>D&#45;&gt;C</title>
<path fill="none" stroke="#000000" d="M107.063,-132.3986C115.5814,-135.593 126.0773,-139.529 135.6048,-143.1018"/>
<polygon fill="#000000" stroke="#000000" points="145.0595,-146.6473 134.1161,-147.3495 140.3778,-144.8917 135.6962,-143.136 135.6962,-143.136 135.6962,-143.136 140.3778,-144.8917 137.2763,-138.9225 145.0595,-146.6473 145.0595,-146.6473"/>
</g>
<!-- U&#45;&gt;D -->
<g id="edge3" class="edge">
<title>U&#45;&gt;D</title>
<path fill="none" stroke="#000000" d="M35.063,-120.1601C43.1928,-119.2975 53.1239,-119.0481 62.2953,-119.4119"/>
<polygon fill="#000000" stroke="#000000" points="72.5593,-120.1206 62.2731,-123.921 67.5712,-119.7761 62.5831,-119.4316 62.5831,-119.4316 62.5831,-119.4316 67.5712,-119.7761 62.8931,-114.9423 72.5593,-120.1206 72.5593,-120.1206"/>
</g>
<!-- S&#45;&gt;G -->
<g id="edge8" class="edge">
<title>S&#45;&gt;G</title>
<path fill="none" stroke="#000000" d="M75.4622,-28.9961C66.9641,-33.276 55.953,-37.7549 45.8467,-41.1512"/>
<polygon fill="#000000" stroke="#000000" points="36.1686,-44.1392 44.3961,-36.8894 40.9461,-42.6641 45.7236,-41.1891 45.7236,-41.1891 45.7236,-41.1891 40.9461,-42.6641 47.0511,-45.4889 36.1686,-44.1392 36.1686,-44.1392"/>
</g>
<!-- S&#45;&gt;I -->
<g id="edge6" class="edge">
<title>S&#45;&gt;I</title>
<path fill="none" stroke="#000000" d="M100.7281,-32.7656C102.9273,-37.6188 103.8178,-42.472 103.3999,-47.3253"/>
<polygon fill="#000000" stroke="#000000" points="100.7042,-57.2871 98.9725,-46.4588 102.0103,-52.4607 103.3163,-47.6343 103.3163,-47.6343 103.3163,-47.6343 102.0103,-52.4607 107.6601,-48.8097 100.7042,-57.2871 100.7042,-57.2871"/>
</g>
<!-- I&#45;&gt;S -->
<g id="edge7" class="edge">
<title>I&#45;&gt;S</title>
<path fill="none" stroke="#000000" d="M79.2958,-57.2871C77.0872,-52.4339 76.1872,-47.5807 76.5956,-42.7275"/>
<polygon fill="#000000" stroke="#000000" points="79.2719,-32.7656 81.0232,-43.5907 77.9746,-37.5944 76.6773,-42.4232 76.6773,-42.4232 76.6773,-42.4232 77.9746,-37.5944 72.3314,-41.2557 79.2719,-32.7656 79.2719,-32.7656"/>
</g>
<!-- P -->
<g id="node7" class="node">
<title>P</title>
<ellipse fill="none" stroke="#000000" cx="162" cy="-99" rx="18" ry="18"/>
<text text-anchor="middle" x="162" y="-94.8" font-family="Times,serif" font-size="14.00" fill="#000000">P</text>
</g>
<!-- C&#45;&gt;P -->
<g id="edge10" class="edge">
<title>C&#45;&gt;P</title>
<path fill="none" stroke="#000000" d="M162,-134.7902C162,-132.3082 162,-129.8262 162,-127.3443"/>
<polygon fill="#000000" stroke="#000000" points="162,-117.1406 166.5001,-127.1406 162,-122.1406 162.0001,-127.1406 162.0001,-127.1406 162.0001,-127.1406 162,-122.1406 157.5001,-127.1407 162,-117.1406 162,-117.1406"/>
</g>
<!-- P&#45;&gt;D -->
<g id="edge11" class="edge">
<title>P&#45;&gt;D</title>
<path fill="none" stroke="#000000" d="M145.0595,-105.3527C136.5602,-108.5399 126.0692,-112.4741 116.5324,-116.0503"/>
<polygon fill="#000000" stroke="#000000" points="107.063,-119.6014 114.8462,-111.8766 111.7446,-117.8457 116.4263,-116.0901 116.4263,-116.0901 116.4263,-116.0901 111.7446,-117.8457 118.0064,-120.3036 107.063,-119.6014 107.063,-119.6014"/>
</g>
</g>
</svg>
