<?xml version="1.0" encoding="UTF-8" standalone="no"?>
<!DOCTYPE svg PUBLIC "-//W3C//DTD SVG 1.1//EN"
 "http://www.w3.org/Graphics/SVG/1.1/DTD/svg11.dtd">
<!-- Generated by graphviz version 2.40.1 (20161225.0304)
 -->
<!-- Title: G Pages: 1 -->
<svg width="191pt" height="159pt"
 viewBox="0.00 0.00 191.31 158.85" xmlns="http://www.w3.org/2000/svg" xmlns:xlink="http://www.w3.org/1999/xlink">
<g id="graph0" class="graph" transform="scale(1 1) rotate(0) translate(7.2 151.6537)">
<title>G</title>
<polygon fill="#ffffff" stroke="transparent" points="-7.2,7.2 -7.2,-151.6537 184.1074,-151.6537 184.1074,7.2 -7.2,7.2"/>
<!-- UI -->
<g id="node1" class="node">
<title>UI</title>
<polygon fill="none" stroke="#000000" stroke-width=".6" points="54,-135 0,-135 0,-99 54,-99 54,-135"/>
<text text-anchor="middle" x="27" y="-112.8" font-family="Times,serif" font-size="14.00" fill="#000000">UI</text>
</g>
<!-- G -->
<g id="node2" class="node">
<title>G</title>
<ellipse fill="none" stroke="#000000" stroke-width=".6" cx="27" cy="-45" rx="18" ry="18"/>
<text text-anchor="middle" x="27" y="-40.8" font-family="Times,serif" font-size="14.00" fill="#000000">G</text>
</g>
<!-- UI&#45;&gt;G -->
<g id="edge14" class="edge">
<title>UI&#45;&gt;G</title>
<path fill="none" stroke="#000000" stroke-width=".6" d="M26,-91.3434C26,-84.417 26,-77.4905 26,-70.5641"/>
<path fill="none" stroke="#000000" stroke-width=".6" d="M28,-91.3434C28,-84.417 28,-77.4905 28,-70.5641"/>
<polygon fill="none" stroke="#000000" stroke-width=".6" points="24.3751,-91.3593 27,-98.8594 29.6251,-91.3594 24.3751,-91.3593"/>
<polygon fill="none" stroke="#000000" stroke-width=".6" points="29.6251,-70.5 27,-63 24.3751,-70.5 29.6251,-70.5"/>
</g>
<!-- C -->
<g id="node3" class="node">
<title>C</title>
<ellipse fill="none" stroke="#000000" stroke-width=".6" cx="97" cy="-72" rx="18" ry="18"/>
<text text-anchor="middle" x="97" y="-67.8" font-family="Times,serif" font-size="14.00" fill="#000000">C</text>
</g>
<!-- G&#45;&gt;C -->
<g id="edge1" class="edge">
<title>G&#45;&gt;C</title>
<path fill="none" stroke="#000000" stroke-width=".6" d="M45.0267,-45.9649C55.4172,-48.9609 68.4411,-53.9805 78.852,-59.0001"/>
<polygon fill="#000000" stroke="#000000" stroke-width=".6" points="78.3548,-60.3164 82.5596,-60.8456 79.6026,-57.8098 78.3548,-60.3164"/>
</g>
<!-- S -->
<g id="node4" class="node">
<title>S</title>
<ellipse fill="none" stroke="#000000" stroke-width=".6" cx="97" cy="-18" rx="18" ry="18"/>
<text text-anchor="middle" x="97" y="-13.8" font-family="Times,serif" font-size="14.00" fill="#000000">S</text>
</g>
<!-- G&#45;&gt;S -->
<g id="edge3" class="edge">
<title>G&#45;&gt;S</title>
<path fill="none" stroke="#000000" stroke-width=".6" d="M41.504,-33.8129C51.1338,-28.861 63.9596,-23.6689 74.8552,-20.2137"/>
<polygon fill="#000000" stroke="#000000" stroke-width=".6" points="75.3526,-21.5258 78.7725,-19.023 74.5382,-18.8468 75.3526,-21.5258"/>
</g>
<!-- C&#45;&gt;G -->
<g id="edge2" class="edge">
<title>C&#45;&gt;G</title>
<path fill="none" stroke="#000000" stroke-width=".6" d="M78.7725,-70.977C68.4284,-67.9783 55.5244,-62.9997 45.187,-58.0187"/>
<polygon fill="#000000" stroke="#000000" stroke-width=".6" points="45.709,-56.7148 41.504,-56.1871 44.4622,-59.2219 45.709,-56.7148"/>
</g>
<!-- U -->
<g id="node5" class="node">
<title>U</title>
<ellipse fill="none" stroke="#000000" stroke-width=".6" cx="97" cy="-126" rx="18" ry="18"/>
<text text-anchor="middle" x="97" y="-121.8" font-family="Times,serif" font-size="14.00" fill="#000000">U</text>
</g>
<!-- C&#45;&gt;U -->
<g id="edge5" class="edge">
<title>C&#45;&gt;U</title>
<path fill="none" stroke="#000000" stroke-width=".6" d="M107.7281,-86.7656C110.8532,-93.6623 111.3358,-100.559 109.176,-107.4556"/>
<polygon fill="#000000" stroke="#000000" stroke-width=".6" points="107.8317,-107.0511 107.7042,-111.2871 110.4455,-108.0551 107.8317,-107.0511"/>
</g>
<!-- I -->
<g id="node7" class="node">
<title>I</title>
<ellipse fill="none" stroke="#000000" stroke-width=".6" cx="158.4537" cy="-18" rx="18" ry="18"/>
<text text-anchor="middle" x="158.4537" y="-13.8" font-family="Times,serif" font-size="14.00" fill="#000000">I</text>
</g>
<!-- C&#45;&gt;I -->
<g id="edge8" class="edge">
<title>C&#45;&gt;I</title>
<path fill="none" stroke="#000000" stroke-width=".6" d="M110.6386,-60.0156C119.7882,-51.9758 131.9019,-41.3314 141.6469,-32.7683"/>
<polygon fill="#000000" stroke="#000000" stroke-width=".6" points="142.7726,-33.6429 144.8533,-29.9508 140.9243,-31.5395 142.7726,-33.6429"/>
</g>
<!-- S&#45;&gt;G -->
<g id="edge4" class="edge">
<title>S&#45;&gt;G</title>
<path fill="none" stroke="#000000" stroke-width=".6" d="M82.5596,-29.1544C72.8696,-34.1434 59.9224,-39.381 48.9642,-42.8435"/>
<polygon fill="#000000" stroke="#000000" stroke-width=".6" points="48.4497,-41.5364 45.0267,-44.0351 49.2608,-44.2164 48.4497,-41.5364"/>
</g>
<!-- S&#45;&gt;I -->
<g id="edge9" class="edge">
<title>S&#45;&gt;I</title>
<path fill="none" stroke="#000000" stroke-width=".6" d="M114.1183,-11.8766C121.3101,-11.1691 129.7483,-11.0607 137.322,-11.5514"/>
<polygon fill="#000000" stroke="#000000" stroke-width=".6" points="137.3268,-12.9564 141.4272,-11.8857 137.5541,-10.1656 137.3268,-12.9564"/>
</g>
<!-- U&#45;&gt;C -->
<g id="edge6" class="edge">
<title>U&#45;&gt;C</title>
<path fill="none" stroke="#000000" stroke-width=".6" d="M86.2958,-111.2871C83.1573,-104.3904 82.6612,-97.4938 84.8076,-90.5971"/>
<polygon fill="#000000" stroke="#000000" stroke-width=".6" points="86.1516,-91.0019 86.2719,-86.7656 83.5361,-90.0023 86.1516,-91.0019"/>
</g>
<!-- W -->
<g id="node6" class="node">
<title>W</title>
<ellipse fill="none" stroke="#000000" stroke-width=".6" cx="158.4537" cy="-126" rx="18.4075" ry="18.4075"/>
<text text-anchor="middle" x="158.4537" y="-121.8" font-family="Times,serif" font-size="14.00" fill="#000000">W</text>
</g>
<!-- U&#45;&gt;W -->
<g id="edge7" class="edge">
<title>U&#45;&gt;W</title>
<path fill="none" stroke="#000000" stroke-width=".6" d="M115.1058,-126C121.5561,-126 128.9046,-126 135.6953,-126"/>
<polygon fill="#000000" stroke="#000000" stroke-width=".6" points="135.8384,-127.4001 139.8384,-126 135.8383,-124.6001 135.8384,-127.4001"/>
</g>
<!-- P -->
<g id="node8" class="node">
<title>P</title>
<ellipse fill="none" stroke="#000000" stroke-width=".6" cx="158.4537" cy="-72" rx="18" ry="18"/>
<text text-anchor="middle" x="158.4537" y="-67.8" font-family="Times,serif" font-size="14.00" fill="#000000">P</text>
</g>
<!-- W&#45;&gt;P -->
<g id="edge11" class="edge">
<title>W&#45;&gt;P</title>
<path fill="none" stroke="#000000" stroke-width=".6" d="M158.4537,-107.51C158.4537,-103.0772 158.4537,-98.6444 158.4537,-94.2116"/>
<polygon fill="#000000" stroke="#000000" stroke-width=".6" points="159.8538,-94.1406 158.4537,-90.1406 157.0538,-94.1407 159.8538,-94.1406"/>
</g>
<!-- I&#45;&gt;S -->
<g id="edge10" class="edge">
<title>I&#45;&gt;S</title>
<path fill="none" stroke="#000000" stroke-width=".6" d="M141.4272,-24.1143C134.2461,-24.8269 125.8096,-24.9404 118.2285,-24.4548"/>
<polygon fill="#000000" stroke="#000000" stroke-width=".6" points="118.2179,-23.0495 114.1183,-24.1234 117.9928,-25.8404 118.2179,-23.0495"/>
</g>
<!-- P&#45;&gt;C -->
<g id="edge12" class="edge">
<title>P&#45;&gt;C</title>
<path fill="none" stroke="#000000" stroke-width=".6" d="M140.265,-72C133.6896,-72 126.1895,-72 119.3016,-72"/>
<polygon fill="#000000" stroke="#000000" stroke-width=".6" points="119.1058,-70.6001 115.1058,-72 119.1057,-73.4001 119.1058,-70.6001"/>
</g>
<!-- P&#45;&gt;I -->
</g>
</svg>
