<?xml version="1.0" encoding="UTF-8" standalone="no"?>
<!DOCTYPE svg PUBLIC "-//W3C//DTD SVG 1.1//EN"
 "http://www.w3.org/Graphics/SVG/1.1/DTD/svg11.dtd">
<!-- Generated by graphviz version 2.40.1 (20161225.0304)
 -->
<!-- Title: G Pages: 1 -->
<svg width="190pt" height="158pt"
 viewBox="0.00 0.00 190.40 158.40" xmlns="http://www.w3.org/2000/svg" xmlns:xlink="http://www.w3.org/1999/xlink">
<g id="graph0" class="graph" transform="scale(1 1) rotate(0) translate(7.2 151.2)">
<title>G</title>
<polygon fill="#ffffff" stroke="transparent" points="-7.2,7.2 -7.2,-151.2 183.2,-151.2 183.2,7.2 -7.2,7.2"/>
<!-- HTTP -->
<g id="node1" class="node">
<title>HTTP</title>
<text text-anchor="middle" x="27" y="-112.8" font-family="Times,serif" font-size="14.00" fill="#000000">HTTP</text>
</g>
<!-- G -->
<g id="node2" class="node">
<title>G</title>
<ellipse fill="none" stroke="#000000" stroke-width=".75" cx="27" cy="-45" rx="18" ry="18"/>
<text text-anchor="middle" x="27" y="-40.8" font-family="Times,serif" font-size="14.00" fill="#000000">G</text>
</g>
<!-- HTTP&#45;&gt;G -->
<g id="edge14" class="edge">
<title>HTTP&#45;&gt;G</title>
<path fill="none" stroke="#000000" stroke-width=".75" d="M27,-93.5628C27,-85.0561 27,-76.5494 27,-68.0427"/>
<polygon fill="#000000" stroke="#000000" stroke-width=".75" points="25.2501,-93.8593 27,-98.8594 28.7501,-93.8594 25.2501,-93.8593"/>
<polygon fill="#000000" stroke="#000000" stroke-width=".75" points="28.7501,-68 27,-63 25.2501,-68 28.7501,-68"/>
</g>
<!-- D -->
<g id="node3" class="node">
<title>D</title>
<ellipse fill="none" stroke="#000000" stroke-width=".75" cx="97" cy="-72" rx="18" ry="18"/>
<text text-anchor="middle" x="97" y="-67.8" font-family="Times,serif" font-size="14.00" fill="#000000">D</text>
</g>
<!-- G&#45;&gt;D -->
<g id="edge1" class="edge">
<title>G&#45;&gt;D</title>
<path fill="none" stroke="#000000" stroke-width=".75" d="M45.0267,-45.9649C55.1438,-48.8821 67.7574,-53.7177 78.0247,-58.6038"/>
<polygon fill="#000000" stroke="#000000" stroke-width=".75" points="77.3019,-60.1986 82.5596,-60.8456 78.8529,-57.061 77.3019,-60.1986"/>
</g>
<!-- S -->
<g id="node4" class="node">
<title>S</title>
<ellipse fill="none" stroke="#000000" stroke-width=".75" cx="97" cy="-18" rx="18" ry="18"/>
<text text-anchor="middle" x="97" y="-13.8" font-family="Times,serif" font-size="14.00" fill="#000000">S</text>
</g>
<!-- G&#45;&gt;S -->
<g id="edge3" class="edge">
<title>G&#45;&gt;S</title>
<path fill="none" stroke="#000000" stroke-width=".75" d="M41.504,-33.8129C50.8804,-28.9914 63.2868,-23.942 73.9911,-20.49"/>
<polygon fill="#000000" stroke="#000000" stroke-width=".75" points="74.5058,-22.1627 78.7725,-19.023 73.4791,-18.8167 74.5058,-22.1627"/>
</g>
<!-- D&#45;&gt;G -->
<g id="edge2" class="edge">
<title>D&#45;&gt;G</title>
<path fill="none" stroke="#000000" stroke-width=".75" d="M78.7725,-70.977C68.7006,-68.0572 56.2018,-63.2604 46.0083,-58.4119"/>
<polygon fill="#000000" stroke="#000000" stroke-width=".75" points="46.762,-56.8324 41.504,-56.1871 45.212,-59.9705 46.762,-56.8324"/>
</g>
<!-- U -->
<g id="node5" class="node">
<title>U</title>
<ellipse fill="none" stroke="#000000" stroke-width=".75" cx="97" cy="-126" rx="18" ry="18"/>
<text text-anchor="middle" x="97" y="-121.8" font-family="Times,serif" font-size="14.00" fill="#000000">U</text>
</g>
<!-- D&#45;&gt;U -->
<g id="edge5" class="edge">
<title>D&#45;&gt;U</title>
<path fill="none" stroke="#000000" stroke-width=".75" d="M107.7281,-86.7656C110.6796,-93.2791 111.274,-99.7927 109.5115,-106.3062"/>
<polygon fill="#000000" stroke="#000000" stroke-width=".75" points="107.7646,-105.99 107.7042,-111.2871 111.0547,-107.1838 107.7646,-105.99"/>
</g>
<!-- I -->
<g id="node7" class="node">
<title>I</title>
<ellipse fill="none" stroke="#000000" stroke-width=".75" cx="158" cy="-18" rx="18" ry="18"/>
<text text-anchor="middle" x="158" y="-13.8" font-family="Times,serif" font-size="14.00" fill="#000000">I</text>
</g>
<!-- D&#45;&gt;I -->
<g id="edge8" class="edge">
<title>D&#45;&gt;I</title>
<path fill="none" stroke="#000000" stroke-width=".75" d="M110.5379,-60.0156C119.383,-52.1855 131.0189,-41.8849 140.5556,-33.4426"/>
<polygon fill="#000000" stroke="#000000" stroke-width=".75" points="141.9161,-34.5754 144.5,-29.9508 139.5962,-31.9547 141.9161,-34.5754"/>
</g>
<!-- S&#45;&gt;G -->
<g id="edge4" class="edge">
<title>S&#45;&gt;G</title>
<path fill="none" stroke="#000000" stroke-width=".75" d="M82.5596,-29.1544C73.1246,-34.0121 60.6016,-39.1055 49.8334,-42.5665"/>
<polygon fill="#000000" stroke="#000000" stroke-width=".75" points="49.2972,-40.9004 45.0267,-44.0351 50.3199,-44.2476 49.2972,-40.9004"/>
</g>
<!-- S&#45;&gt;I -->
<g id="edge9" class="edge">
<title>S&#45;&gt;I</title>
<path fill="none" stroke="#000000" stroke-width=".75" d="M113.9919,-11.8766C120.6216,-11.2196 128.3184,-11.0792 135.404,-11.4556"/>
<polygon fill="#000000" stroke="#000000" stroke-width=".75" points="135.5602,-13.2218 140.6754,-11.8442 135.8176,-9.7313 135.5602,-13.2218"/>
</g>
<!-- U&#45;&gt;D -->
<g id="edge6" class="edge">
<title>U&#45;&gt;D</title>
<path fill="none" stroke="#000000" stroke-width=".75" d="M86.2958,-111.2871C83.3316,-104.7736 82.7245,-98.2601 84.4743,-91.7466"/>
<polygon fill="#000000" stroke="#000000" stroke-width=".75" points="86.2206,-92.0628 86.2719,-86.7656 82.9284,-90.8747 86.2206,-92.0628"/>
</g>
<!-- C -->
<g id="node6" class="node">
<title>C</title>
<ellipse fill="none" stroke="#000000" stroke-width=".75" cx="158" cy="-126" rx="18" ry="18"/>
<text text-anchor="middle" x="158" y="-121.8" font-family="Times,serif" font-size="14.00" fill="#000000">C</text>
</g>
<!-- U&#45;&gt;C -->
<g id="edge7" class="edge">
<title>U&#45;&gt;C</title>
<path fill="none" stroke="#000000" stroke-width=".75" d="M115.302,-126C121.3337,-126 128.1275,-126 134.4919,-126"/>
<polygon fill="#000000" stroke="#000000" stroke-width=".75" points="134.7109,-127.7501 139.7109,-126 134.7109,-124.2501 134.7109,-127.7501"/>
</g>
<!-- P -->
<g id="node8" class="node">
<title>P</title>
<ellipse fill="none" stroke="#000000" stroke-width=".75" cx="158" cy="-72" rx="18" ry="18"/>
<text text-anchor="middle" x="158" y="-67.8" font-family="Times,serif" font-size="14.00" fill="#000000">P</text>
</g>
<!-- C&#45;&gt;P -->
<g id="edge11" class="edge">
<title>C&#45;&gt;P</title>
<path fill="none" stroke="#000000" stroke-width=".75" d="M158,-107.7902C158,-103.6536 158,-99.5169 158,-95.3803"/>
<polygon fill="#000000" stroke="#000000" stroke-width=".75" points="159.7501,-95.1406 158,-90.1406 156.2501,-95.1407 159.7501,-95.1406"/>
</g>
<!-- I&#45;&gt;S -->
<g id="edge10" class="edge">
<title>I&#45;&gt;S</title>
<path fill="none" stroke="#000000" stroke-width=".75" d="M140.6754,-24.1558C134.0105,-24.7956 126.3066,-24.9187 119.2419,-24.5251"/>
<polygon fill="#000000" stroke="#000000" stroke-width=".75" points="119.1109,-22.76 113.9919,-24.1234 118.8438,-26.2498 119.1109,-22.76"/>
</g>
<!-- P&#45;&gt;D -->
<g id="edge12" class="edge">
<title>P&#45;&gt;D</title>
<path fill="none" stroke="#000000" stroke-width=".75" d="M139.7109,-72C133.6803,-72 126.8868,-72 120.5217,-72"/>
<polygon fill="#000000" stroke="#000000" stroke-width=".75" points="120.302,-70.2501 115.302,-72 120.302,-73.7501 120.302,-70.2501"/>
</g>
<!-- P&#45;&gt;I -->
</g>
</svg>
