<?xml version="1.0" encoding="UTF-8" standalone="no"?>
<!DOCTYPE svg PUBLIC "-//W3C//DTD SVG 1.1//EN"
 "http://www.w3.org/Graphics/SVG/1.1/DTD/svg11.dtd">
<!-- Generated by graphviz version 2.40.1 (20161225.0304)
 -->
<!-- Title: G Pages: 1 -->
<svg width="191pt" height="159pt"
 viewBox="0.00 0.00 191.31 158.85" xmlns="http://www.w3.org/2000/svg" xmlns:xlink="http://www.w3.org/1999/xlink">
<g id="graph0" class="graph" transform="scale(1 1) rotate(0) translate(7.2 151.6537)">
<title>G</title>
<polygon fill="#ffffff" stroke="transparent" points="-7.2,7.2 -7.2,-151.6537 184.1074,-151.6537 184.1074,7.2 -7.2,7.2"/>
<!-- Web -->
<g id="node1" class="node">
<title>Web</title>
<polygon fill="none" stroke="#000000" stroke-width=".75" points="54,-135 0,-135 0,-99 54,-99 54,-135"/>
<text text-anchor="middle" x="27" y="-112.8" font-family="Times,serif" font-size="14.00" fill="#000000">Web</text>
</g>
<!-- G -->
<g id="node2" class="node">
<title>G</title>
<ellipse fill="none" stroke="#000000" stroke-width=".75" cx="27" cy="-45" rx="18" ry="18"/>
<text text-anchor="middle" x="27" y="-40.8" font-family="Times,serif" font-size="14.00" fill="#000000">G</text>
</g>
<!-- Web&#45;&gt;G -->
<g id="edge14" class="edge">
<title>Web&#45;&gt;G</title>
<path fill="none" stroke="#000000" stroke-width=".75" d="M26,-91.3434C26,-84.417 26,-77.4905 26,-70.5641"/>
<path fill="none" stroke="#000000" stroke-width=".75" d="M28,-91.3434C28,-84.417 28,-77.4905 28,-70.5641"/>
<polygon fill="none" stroke="#000000" stroke-width=".75" points="24.3751,-91.3593 27,-98.8594 29.6251,-91.3594 24.3751,-91.3593"/>
<polygon fill="none" stroke="#000000" stroke-width=".75" points="29.6251,-70.5 27,-63 24.3751,-70.5 29.6251,-70.5"/>
</g>
<!-- C -->
<g id="node3" class="node">
<title>C</title>
<ellipse fill="none" stroke="#000000" stroke-width=".75" cx="97" cy="-72" rx="18" ry="18"/>
<text text-anchor="middle" x="97" y="-67.8" font-family="Times,serif" font-size="14.00" fill="#000000">C</text>
</g>
<!-- G&#45;&gt;C -->
<g id="edge1" class="edge">
<title>G&#45;&gt;C</title>
<path fill="none" stroke="#000000" stroke-width=".75" d="M45.0267,-45.9649C55.1438,-48.8821 67.7574,-53.7177 78.0247,-58.6038"/>
<polygon fill="#000000" stroke="#000000" stroke-width=".75" points="77.3019,-60.1986 82.5596,-60.8456 78.8529,-57.061 77.3019,-60.1986"/>
</g>
<!-- S -->
<g id="node4" class="node">
<title>S</title>
<ellipse fill="none" stroke="#000000" stroke-width=".75" cx="97" cy="-18" rx="18" ry="18"/>
<text text-anchor="middle" x="97" y="-13.8" font-family="Times,serif" font-size="14.00" fill="#000000">S</text>
</g>
<!-- G&#45;&gt;S -->
<g id="edge3" class="edge">
<title>G&#45;&gt;S</title>
<path fill="none" stroke="#000000" stroke-width=".75" d="M41.504,-33.8129C50.8804,-28.9914 63.2868,-23.942 73.9911,-20.49"/>
<polygon fill="#000000" stroke="#000000" stroke-width=".75" points="74.5058,-22.1627 78.7725,-19.023 73.4791,-18.8167 74.5058,-22.1627"/>
</g>
<!-- C&#45;&gt;G -->
<g id="edge2" class="edge">
<title>C&#45;&gt;G</title>
<path fill="none" stroke="#000000" stroke-width=".75" d="M78.7725,-70.977C68.7006,-68.0572 56.2018,-63.2604 46.0083,-58.4119"/>
<polygon fill="#000000" stroke="#000000" stroke-width=".75" points="46.762,-56.8324 41.504,-56.1871 45.212,-59.9705 46.762,-56.8324"/>
</g>
<!-- U -->
<g id="node5" class="node">
<title>U</title>
<ellipse fill="none" stroke="#000000" stroke-width=".75" cx="97" cy="-126" rx="18" ry="18"/>
<text text-anchor="middle" x="97" y="-121.8" font-family="Times,serif" font-size="14.00" fill="#000000">U</text>
</g>
<!-- C&#45;&gt;U -->
<g id="edge5" class="edge">
<title>C&#45;&gt;U</title>
<path fill="none" stroke="#000000" stroke-width=".75" d="M107.7281,-86.7656C110.6796,-93.2791 111.274,-99.7927 109.5115,-106.3062"/>
<polygon fill="#000000" stroke="#000000" stroke-width=".75" points="107.7646,-105.99 107.7042,-111.2871 111.0547,-107.1838 107.7646,-105.99"/>
</g>
<!-- I -->
<g id="node7" class="node">
<title>I</title>
<ellipse fill="none" stroke="#000000" stroke-width=".75" cx="158.4537" cy="-18" rx="18" ry="18"/>
<text text-anchor="middle" x="158.4537" y="-13.8" font-family="Times,serif" font-size="14.00" fill="#000000">I</text>
</g>
<!-- C&#45;&gt;I -->
<g id="edge8" class="edge">
<title>C&#45;&gt;I</title>
<path fill="none" stroke="#000000" stroke-width=".75" d="M110.6386,-60.0156C119.5495,-52.1855 131.2719,-41.8849 140.8795,-33.4426"/>
<polygon fill="#000000" stroke="#000000" stroke-width=".75" points="142.2524,-34.5659 144.8533,-29.9508 139.9421,-31.9367 142.2524,-34.5659"/>
</g>
<!-- S&#45;&gt;G -->
<g id="edge4" class="edge">
<title>S&#45;&gt;G</title>
<path fill="none" stroke="#000000" stroke-width=".75" d="M82.5596,-29.1544C73.1246,-34.0121 60.6016,-39.1055 49.8334,-42.5665"/>
<polygon fill="#000000" stroke="#000000" stroke-width=".75" points="49.2972,-40.9004 45.0267,-44.0351 50.3199,-44.2476 49.2972,-40.9004"/>
</g>
<!-- S&#45;&gt;I -->
<g id="edge9" class="edge">
<title>S&#45;&gt;I</title>
<path fill="none" stroke="#000000" stroke-width=".75" d="M114.1183,-11.8766C120.9105,-11.2084 128.8145,-11.0746 136.052,-11.4752"/>
<polygon fill="#000000" stroke="#000000" stroke-width=".75" points="136.3085,-13.2498 141.4272,-11.8857 136.575,-9.76 136.3085,-13.2498"/>
</g>
<!-- U&#45;&gt;C -->
<g id="edge6" class="edge">
<title>U&#45;&gt;C</title>
<path fill="none" stroke="#000000" stroke-width=".75" d="M86.2958,-111.2871C83.3316,-104.7736 82.7245,-98.2601 84.4743,-91.7466"/>
<polygon fill="#000000" stroke="#000000" stroke-width=".75" points="86.2206,-92.0628 86.2719,-86.7656 82.9284,-90.8747 86.2206,-92.0628"/>
</g>
<!-- W -->
<g id="node6" class="node">
<title>W</title>
<ellipse fill="none" stroke="#000000" stroke-width=".75" cx="158.4537" cy="-126" rx="18.4075" ry="18.4075"/>
<text text-anchor="middle" x="158.4537" y="-121.8" font-family="Times,serif" font-size="14.00" fill="#000000">W</text>
</g>
<!-- U&#45;&gt;W -->
<g id="edge7" class="edge">
<title>U&#45;&gt;W</title>
<path fill="none" stroke="#000000" stroke-width=".75" d="M115.1058,-126C121.191,-126 128.0755,-126 134.537,-126"/>
<polygon fill="#000000" stroke="#000000" stroke-width=".75" points="134.8384,-127.7501 139.8384,-126 134.8383,-124.2501 134.8384,-127.7501"/>
</g>
<!-- P -->
<g id="node8" class="node">
<title>P</title>
<ellipse fill="none" stroke="#000000" stroke-width=".75" cx="158.4537" cy="-72" rx="18" ry="18"/>
<text text-anchor="middle" x="158.4537" y="-67.8" font-family="Times,serif" font-size="14.00" fill="#000000">P</text>
</g>
<!-- W&#45;&gt;P -->
<g id="edge11" class="edge">
<title>W&#45;&gt;P</title>
<path fill="none" stroke="#000000" stroke-width=".75" d="M158.4537,-107.51C158.4537,-103.4391 158.4537,-99.3681 158.4537,-95.2972"/>
<polygon fill="#000000" stroke="#000000" stroke-width=".75" points="160.2038,-95.1406 158.4537,-90.1406 156.7038,-95.1407 160.2038,-95.1406"/>
</g>
<!-- I&#45;&gt;S -->
<g id="edge10" class="edge">
<title>I&#45;&gt;S</title>
<path fill="none" stroke="#000000" stroke-width=".75" d="M141.4272,-24.1143C134.6451,-24.7873 126.7431,-24.9259 119.4996,-24.5302"/>
<polygon fill="#000000" stroke="#000000" stroke-width=".75" points="119.236,-22.7553 114.1183,-24.1234 118.9721,-26.2454 119.236,-22.7553"/>
</g>
<!-- P&#45;&gt;C -->
<g id="edge12" class="edge">
<title>P&#45;&gt;C</title>
<path fill="none" stroke="#000000" stroke-width=".75" d="M140.265,-72C134.0618,-72 127.0356,-72 120.4769,-72"/>
<polygon fill="#000000" stroke="#000000" stroke-width=".75" points="120.1058,-70.2501 115.1058,-72 120.1057,-73.7501 120.1058,-70.2501"/>
</g>
<!-- P&#45;&gt;I -->
</g>
</svg>
